<mxfile host="drawio-plugin" agent="Mozilla/5.0 (Windows NT 10.0; Win64; x64) AppleWebKit/537.36 (KHTML, like Gecko) Chrome/122.0.0.0 Safari/537.36" modified="2025-08-01T09:05:31.519Z" etag="iAO-DwKk76i0fNQzUqnN" version="22.1.22" type="embed">
  <diagram name="Page-1" id="IGlA1xuVuQL6AuhOszoe">
    <mxGraphModel dx="1575" dy="722" grid="1" gridSize="10" guides="1" tooltips="1" connect="1" arrows="1" fold="1" page="1" pageScale="1" pageWidth="850" pageHeight="1100" math="0" shadow="0">
      <root>
        <mxCell id="0" />
        <mxCell id="1" parent="0" />
        <mxCell id="_ScOnDxthFl8-DoNwWxf-8" value="User" style="shape=umlLifeline;perimeter=lifelinePerimeter;whiteSpace=wrap;html=1;container=1;dropTarget=0;collapsible=0;recursiveResize=0;outlineConnect=0;portConstraint=eastwest;newEdgeStyle={&quot;curved&quot;:0,&quot;rounded&quot;:0};" parent="1" vertex="1">
          <mxGeometry x="40" y="60" width="100" height="470" as="geometry" />
        </mxCell>
        <mxCell id="_ScOnDxthFl8-DoNwWxf-13" value="" style="html=1;points=[[0,0,0,0,5],[0,1,0,0,-5],[1,0,0,0,5],[1,1,0,0,-5]];perimeter=orthogonalPerimeter;outlineConnect=0;targetShapes=umlLifeline;portConstraint=eastwest;newEdgeStyle={&quot;curved&quot;:0,&quot;rounded&quot;:0};" parent="_ScOnDxthFl8-DoNwWxf-8" vertex="1">
          <mxGeometry x="45" y="70" width="10" height="370" as="geometry" />
        </mxCell>
        <mxCell id="_ScOnDxthFl8-DoNwWxf-9" value="Router" style="shape=umlLifeline;perimeter=lifelinePerimeter;whiteSpace=wrap;html=1;container=1;dropTarget=0;collapsible=0;recursiveResize=0;outlineConnect=0;portConstraint=eastwest;newEdgeStyle={&quot;curved&quot;:0,&quot;rounded&quot;:0};" parent="1" vertex="1">
          <mxGeometry x="160" y="60" width="100" height="470" as="geometry" />
        </mxCell>
        <mxCell id="_ScOnDxthFl8-DoNwWxf-15" value="" style="html=1;points=[[0,0,0,0,5],[0,1,0,0,-5],[1,0,0,0,5],[1,1,0,0,-5]];perimeter=orthogonalPerimeter;outlineConnect=0;targetShapes=umlLifeline;portConstraint=eastwest;newEdgeStyle={&quot;curved&quot;:0,&quot;rounded&quot;:0};" parent="_ScOnDxthFl8-DoNwWxf-9" vertex="1">
          <mxGeometry x="45" y="65" width="10" height="375" as="geometry" />
        </mxCell>
        <mxCell id="_ScOnDxthFl8-DoNwWxf-10" value="Payment Processing Service" style="shape=umlLifeline;perimeter=lifelinePerimeter;whiteSpace=wrap;html=1;container=1;dropTarget=0;collapsible=0;recursiveResize=0;outlineConnect=0;portConstraint=eastwest;newEdgeStyle={&quot;curved&quot;:0,&quot;rounded&quot;:0};size=50;" parent="1" vertex="1">
          <mxGeometry x="310" y="60" width="100" height="470" as="geometry" />
        </mxCell>
        <mxCell id="_ScOnDxthFl8-DoNwWxf-18" value="" style="html=1;points=[[0,0,0,0,5],[0,1,0,0,-5],[1,0,0,0,5],[1,1,0,0,-5]];perimeter=orthogonalPerimeter;outlineConnect=0;targetShapes=umlLifeline;portConstraint=eastwest;newEdgeStyle={&quot;curved&quot;:0,&quot;rounded&quot;:0};" parent="_ScOnDxthFl8-DoNwWxf-10" vertex="1">
          <mxGeometry x="45" y="70" width="10" height="110" as="geometry" />
        </mxCell>
        <mxCell id="_ScOnDxthFl8-DoNwWxf-36" value="" style="html=1;points=[[0,0,0,0,5],[0,1,0,0,-5],[1,0,0,0,5],[1,1,0,0,-5]];perimeter=orthogonalPerimeter;outlineConnect=0;targetShapes=umlLifeline;portConstraint=eastwest;newEdgeStyle={&quot;curved&quot;:0,&quot;rounded&quot;:0};" parent="_ScOnDxthFl8-DoNwWxf-10" vertex="1">
          <mxGeometry x="45" y="210" width="10" height="230" as="geometry" />
        </mxCell>
        <mxCell id="_ScOnDxthFl8-DoNwWxf-11" value="Broker System" style="shape=umlLifeline;perimeter=lifelinePerimeter;whiteSpace=wrap;html=1;container=1;dropTarget=0;collapsible=0;recursiveResize=0;outlineConnect=0;portConstraint=eastwest;newEdgeStyle={&quot;curved&quot;:0,&quot;rounded&quot;:0};" parent="1" vertex="1">
          <mxGeometry x="555" y="60" width="100" height="470" as="geometry" />
        </mxCell>
        <mxCell id="_ScOnDxthFl8-DoNwWxf-31" value="" style="html=1;points=[[0,0,0,0,5],[0,1,0,0,-5],[1,0,0,0,5],[1,1,0,0,-5]];perimeter=orthogonalPerimeter;outlineConnect=0;targetShapes=umlLifeline;portConstraint=eastwest;newEdgeStyle={&quot;curved&quot;:0,&quot;rounded&quot;:0};" parent="_ScOnDxthFl8-DoNwWxf-11" vertex="1">
          <mxGeometry x="45" y="150" width="10" height="100" as="geometry" />
        </mxCell>
        <mxCell id="_ScOnDxthFl8-DoNwWxf-12" value="Fraud Check System" style="shape=umlLifeline;perimeter=lifelinePerimeter;whiteSpace=wrap;html=1;container=1;dropTarget=0;collapsible=0;recursiveResize=0;outlineConnect=0;portConstraint=eastwest;newEdgeStyle={&quot;curved&quot;:0,&quot;rounded&quot;:0};" parent="1" vertex="1">
          <mxGeometry x="690" y="60" width="100" height="470" as="geometry" />
        </mxCell>
        <mxCell id="_ScOnDxthFl8-DoNwWxf-32" value="" style="html=1;points=[[0,0,0,0,5],[0,1,0,0,-5],[1,0,0,0,5],[1,1,0,0,-5]];perimeter=orthogonalPerimeter;outlineConnect=0;targetShapes=umlLifeline;portConstraint=eastwest;newEdgeStyle={&quot;curved&quot;:0,&quot;rounded&quot;:0};" parent="_ScOnDxthFl8-DoNwWxf-12" vertex="1">
          <mxGeometry x="45" y="150" width="10" height="70" as="geometry" />
        </mxCell>
        <mxCell id="_ScOnDxthFl8-DoNwWxf-16" value="submit payment" style="html=1;verticalAlign=bottom;endArrow=block;curved=0;rounded=0;" parent="1" target="_ScOnDxthFl8-DoNwWxf-10" edge="1">
          <mxGeometry x="-0.6289" y="10" relative="1" as="geometry">
            <mxPoint x="90" y="150" as="sourcePoint" />
            <mxPoint x="339.5" y="149.99999999999994" as="targetPoint" />
            <mxPoint as="offset" />
          </mxGeometry>
        </mxCell>
        <mxCell id="_ScOnDxthFl8-DoNwWxf-21" value="Receives Payment&lt;div&gt;&amp;nbsp;JSON&lt;/div&gt;" style="text;html=1;align=center;verticalAlign=middle;resizable=0;points=[];autosize=1;strokeColor=none;fillColor=none;" parent="1" vertex="1">
          <mxGeometry x="210" y="110" width="120" height="40" as="geometry" />
        </mxCell>
        <mxCell id="_ScOnDxthFl8-DoNwWxf-25" value="perform basic&amp;nbsp;&lt;div&gt;validations&lt;/div&gt;" style="html=1;align=left;spacingLeft=2;endArrow=block;rounded=0;edgeStyle=orthogonalEdgeStyle;curved=0;rounded=0;" parent="1" source="_ScOnDxthFl8-DoNwWxf-18" edge="1">
          <mxGeometry relative="1" as="geometry">
            <mxPoint x="360" y="155" as="sourcePoint" />
            <Array as="points">
              <mxPoint x="415" y="155" />
              <mxPoint x="415" y="175" />
            </Array>
            <mxPoint x="365" y="175" as="targetPoint" />
          </mxGeometry>
        </mxCell>
        <mxCell id="_ScOnDxthFl8-DoNwWxf-20" value="return" style="html=1;verticalAlign=bottom;endArrow=open;dashed=1;endSize=8;curved=0;rounded=0;exitX=0;exitY=1;exitDx=0;exitDy=-5;" parent="1" source="_ScOnDxthFl8-DoNwWxf-18" target="_ScOnDxthFl8-DoNwWxf-9" edge="1">
          <mxGeometry relative="1" as="geometry">
            <mxPoint x="380" y="205" as="targetPoint" />
          </mxGeometry>
        </mxCell>
        <mxCell id="_ScOnDxthFl8-DoNwWxf-30" value="perform Fraud check" style="html=1;verticalAlign=bottom;endArrow=block;curved=0;rounded=0;" parent="1" edge="1">
          <mxGeometry width="80" relative="1" as="geometry">
            <mxPoint x="360" y="220" as="sourcePoint" />
            <mxPoint x="604.5" y="220" as="targetPoint" />
            <Array as="points">
              <mxPoint x="510" y="220" />
            </Array>
          </mxGeometry>
        </mxCell>
        <mxCell id="_ScOnDxthFl8-DoNwWxf-33" value="Fraud Check result" style="html=1;verticalAlign=bottom;endArrow=block;curved=0;rounded=0;" parent="1" source="_ScOnDxthFl8-DoNwWxf-32" edge="1">
          <mxGeometry width="80" relative="1" as="geometry">
            <mxPoint x="730" y="260" as="sourcePoint" />
            <mxPoint x="610" y="260" as="targetPoint" />
          </mxGeometry>
        </mxCell>
        <mxCell id="_ScOnDxthFl8-DoNwWxf-34" value="Execute Fraud check" style="html=1;verticalAlign=bottom;endArrow=block;curved=0;rounded=0;" parent="1" source="_ScOnDxthFl8-DoNwWxf-31" edge="1">
          <mxGeometry x="0.0042" y="10" width="80" relative="1" as="geometry">
            <mxPoint x="620" y="230" as="sourcePoint" />
            <mxPoint x="739.5" y="230" as="targetPoint" />
            <mxPoint as="offset" />
          </mxGeometry>
        </mxCell>
        <mxCell id="_ScOnDxthFl8-DoNwWxf-35" value="Process Payment&amp;nbsp;&lt;div&gt;(approval / reject)&lt;/div&gt;" style="html=1;verticalAlign=bottom;endArrow=block;curved=0;rounded=0;" parent="1" edge="1">
          <mxGeometry width="80" relative="1" as="geometry">
            <mxPoint x="600" y="295" as="sourcePoint" />
            <mxPoint x="370" y="295" as="targetPoint" />
          </mxGeometry>
        </mxCell>
        <mxCell id="_ScOnDxthFl8-DoNwWxf-40" value="&lt;div&gt;Payment Service&amp;nbsp;&lt;/div&gt;" style="shape=umlLifeline;perimeter=lifelinePerimeter;whiteSpace=wrap;html=1;container=1;dropTarget=0;collapsible=0;recursiveResize=0;outlineConnect=0;portConstraint=eastwest;newEdgeStyle={&quot;curved&quot;:0,&quot;rounded&quot;:0};size=40;" parent="1" vertex="1">
          <mxGeometry x="800" y="60" width="110" height="470" as="geometry" />
        </mxCell>
        <mxCell id="_ScOnDxthFl8-DoNwWxf-41" value="" style="html=1;points=[[0,0,0,0,5],[0,1,0,0,-5],[1,0,0,0,5],[1,1,0,0,-5]];perimeter=orthogonalPerimeter;outlineConnect=0;targetShapes=umlLifeline;portConstraint=eastwest;newEdgeStyle={&quot;curved&quot;:0,&quot;rounded&quot;:0};" parent="_ScOnDxthFl8-DoNwWxf-40" vertex="1">
          <mxGeometry x="50" y="260" width="10" height="50" as="geometry" />
        </mxCell>
        <mxCell id="24" value="" style="html=1;points=[[0,0,0,0,5],[0,1,0,0,-5],[1,0,0,0,5],[1,1,0,0,-5]];perimeter=orthogonalPerimeter;outlineConnect=0;targetShapes=umlLifeline;portConstraint=eastwest;newEdgeStyle={&quot;curved&quot;:0,&quot;rounded&quot;:0};" parent="_ScOnDxthFl8-DoNwWxf-40" vertex="1">
          <mxGeometry x="50" y="380" width="10" height="50" as="geometry" />
        </mxCell>
        <mxCell id="_ScOnDxthFl8-DoNwWxf-42" value="submit payment order(s)" style="html=1;verticalAlign=bottom;endArrow=block;curved=0;rounded=0;" parent="1" edge="1">
          <mxGeometry x="-0.5421" width="80" relative="1" as="geometry">
            <mxPoint x="370" y="340" as="sourcePoint" />
            <mxPoint x="850.5" y="340" as="targetPoint" />
            <mxPoint as="offset" />
          </mxGeometry>
        </mxCell>
        <mxCell id="_ScOnDxthFl8-DoNwWxf-45" value="submit PSP payment details" style="html=1;verticalAlign=bottom;endArrow=block;curved=0;rounded=0;" parent="1" edge="1">
          <mxGeometry x="0.7243" y="20" width="80" relative="1" as="geometry">
            <mxPoint x="850.5" y="360" as="sourcePoint" />
            <mxPoint x="96" y="360" as="targetPoint" />
            <mxPoint as="offset" />
          </mxGeometry>
        </mxCell>
        <mxCell id="12" value="Open Payment details model" style="edgeLabel;html=1;align=center;verticalAlign=middle;resizable=0;points=[];" parent="_ScOnDxthFl8-DoNwWxf-45" vertex="1" connectable="0">
          <mxGeometry x="-0.7335" y="-1" relative="1" as="geometry">
            <mxPoint x="-549" y="-14" as="offset" />
          </mxGeometry>
        </mxCell>
        <mxCell id="2" value="PSPs&lt;div&gt;(Payment Service Providers)&lt;/div&gt;" style="shape=umlLifeline;perimeter=lifelinePerimeter;whiteSpace=wrap;html=1;container=1;dropTarget=0;collapsible=0;recursiveResize=0;outlineConnect=0;portConstraint=eastwest;newEdgeStyle={&quot;curved&quot;:0,&quot;rounded&quot;:0};size=40;" parent="1" vertex="1">
          <mxGeometry x="920" y="60" width="110" height="470" as="geometry" />
        </mxCell>
        <mxCell id="3" value="" style="html=1;points=[[0,0,0,0,5],[0,1,0,0,-5],[1,0,0,0,5],[1,1,0,0,-5]];perimeter=orthogonalPerimeter;outlineConnect=0;targetShapes=umlLifeline;portConstraint=eastwest;newEdgeStyle={&quot;curved&quot;:0,&quot;rounded&quot;:0};" parent="2" vertex="1">
          <mxGeometry x="50" y="260" width="10" height="50" as="geometry" />
        </mxCell>
        <mxCell id="22" value="" style="html=1;points=[[0,0,0,0,5],[0,1,0,0,-5],[1,0,0,0,5],[1,1,0,0,-5]];perimeter=orthogonalPerimeter;outlineConnect=0;targetShapes=umlLifeline;portConstraint=eastwest;newEdgeStyle={&quot;curved&quot;:0,&quot;rounded&quot;:0};" parent="2" vertex="1">
          <mxGeometry x="50" y="320" width="10" height="50" as="geometry" />
        </mxCell>
        <mxCell id="23" value="" style="html=1;points=[[0,0,0,0,5],[0,1,0,0,-5],[1,0,0,0,5],[1,1,0,0,-5]];perimeter=orthogonalPerimeter;outlineConnect=0;targetShapes=umlLifeline;portConstraint=eastwest;newEdgeStyle={&quot;curved&quot;:0,&quot;rounded&quot;:0};" parent="2" vertex="1">
          <mxGeometry x="50" y="380" width="10" height="30" as="geometry" />
        </mxCell>
        <mxCell id="6" value="Submit PSP &lt;br&gt;order details&amp;nbsp;" style="html=1;verticalAlign=bottom;endArrow=block;curved=0;rounded=0;" parent="1" edge="1">
          <mxGeometry x="0.0042" y="10" width="80" relative="1" as="geometry">
            <mxPoint x="860" y="340" as="sourcePoint" />
            <mxPoint x="970" y="340" as="targetPoint" />
            <mxPoint as="offset" />
          </mxGeometry>
        </mxCell>
        <mxCell id="7" value="store UUID" style="html=1;verticalAlign=bottom;endArrow=block;curved=0;rounded=0;" parent="1" edge="1">
          <mxGeometry width="80" relative="1" as="geometry">
            <mxPoint x="970" y="360" as="sourcePoint" />
            <mxPoint x="860" y="360" as="targetPoint" />
          </mxGeometry>
        </mxCell>
        <mxCell id="8" value="" style="endArrow=classic;startArrow=classic;html=1;rounded=0;" parent="1" edge="1">
          <mxGeometry width="50" height="50" relative="1" as="geometry">
            <mxPoint x="100" y="490" as="sourcePoint" />
            <mxPoint x="359.5" y="490" as="targetPoint" />
          </mxGeometry>
        </mxCell>
        <mxCell id="10" value="View account" style="edgeLabel;html=1;align=center;verticalAlign=middle;resizable=0;points=[];" parent="8" vertex="1" connectable="0">
          <mxGeometry x="0.0173" y="3" relative="1" as="geometry">
            <mxPoint x="-92" y="-17" as="offset" />
          </mxGeometry>
        </mxCell>
        <mxCell id="18" value="" style="html=1;verticalAlign=bottom;endArrow=block;curved=0;rounded=0;" parent="1" edge="1">
          <mxGeometry x="0.6257" y="20" width="80" relative="1" as="geometry">
            <mxPoint x="100" y="390" as="sourcePoint" />
            <mxPoint x="968.5" y="390" as="targetPoint" />
            <mxPoint as="offset" />
          </mxGeometry>
        </mxCell>
        <mxCell id="20" value="payment ack / nack" style="html=1;verticalAlign=bottom;endArrow=block;curved=0;rounded=0;" parent="1" edge="1">
          <mxGeometry x="0.6257" y="20" width="80" relative="1" as="geometry">
            <mxPoint x="969" y="410" as="sourcePoint" />
            <mxPoint x="100" y="410" as="targetPoint" />
            <mxPoint as="offset" />
          </mxGeometry>
        </mxCell>
        <mxCell id="21" value="redirect to completion page" style="edgeLabel;html=1;align=center;verticalAlign=middle;resizable=0;points=[];" parent="20" vertex="1" connectable="0">
          <mxGeometry x="-0.7335" y="-1" relative="1" as="geometry">
            <mxPoint x="-653" y="-9" as="offset" />
          </mxGeometry>
        </mxCell>
        <mxCell id="25" value="" style="endArrow=classic;startArrow=classic;html=1;rounded=0;" parent="1" target="2" edge="1">
          <mxGeometry width="50" height="50" relative="1" as="geometry">
            <mxPoint x="860" y="460" as="sourcePoint" />
            <mxPoint x="910" y="410" as="targetPoint" />
          </mxGeometry>
        </mxCell>
        <mxCell id="26" value="poll UUID for&lt;br&gt;&amp;nbsp;status chnge" style="text;html=1;align=center;verticalAlign=middle;resizable=0;points=[];autosize=1;strokeColor=none;fillColor=none;" parent="1" vertex="1">
          <mxGeometry x="870" y="420" width="90" height="40" as="geometry" />
        </mxCell>
        <mxCell id="27" value="Update Payment Status" style="html=1;verticalAlign=bottom;endArrow=block;curved=0;rounded=0;" parent="1" source="24" edge="1">
          <mxGeometry x="0.5102" y="-10" width="80" relative="1" as="geometry">
            <mxPoint x="590" y="460" as="sourcePoint" />
            <mxPoint x="360" y="460" as="targetPoint" />
            <mxPoint as="offset" />
          </mxGeometry>
        </mxCell>
        <mxCell id="28" value="&lt;font style=&quot;font-size: 18px;&quot;&gt;Sequence Diagram : End-to-End Payment Flow&lt;/font&gt;" style="text;html=1;align=center;verticalAlign=middle;resizable=0;points=[];autosize=1;strokeColor=none;fillColor=none;" vertex="1" parent="1">
          <mxGeometry x="270" y="555" width="400" height="40" as="geometry" />
        </mxCell>
      </root>
    </mxGraphModel>
  </diagram>
</mxfile>
